<?xml version="1.0" encoding="UTF-8"?>
<svg version="1.1" xmlns="http://www.w3.org/2000/svg" xmlns:xlink="http://www.w3.org/1999/xlink">
    <!-- Generator: Sketch 55.1 (78136) - https://sketchapp.com -->
    <title>SpeakWriteListen responsive logo</title>
    <desc>Created with Sketch.</desc>
    <defs>
      <style type="text/css">
        @media (max-width: 255px) {
        #speakwritelisten {
          width: 256px;
                    d: path("M5.536,12.771 C5.536,11.0249913 5.97699559,9.76500387 6.859,8.991 C7.74100441,8.21699613 9.1719901,7.83 11.152,7.83 C12.5380069,7.83 13.6539958,8.1899964 14.5,8.91 C15.3460042,9.6300036 15.9579981,10.7279926 16.336,12.204 L13.825,14.094 L12.502,14.094 L15.418,11.907 C15.0399981,10.700994 14.4955036,9.85500243 13.7845,9.369 C13.0734964,8.88299757 12.1960052,8.64 11.152,8.64 C10.4319964,8.64 9.82450247,8.68499955 9.3295,8.775 C8.83449752,8.86500045 8.33950247,9.0404987 7.8445,9.3015 C7.34949752,9.56250131 6.97600126,9.98099712 6.724,10.557 C6.47199874,11.1330029 6.346,11.8709955 6.346,12.771 C6.346,13.563004 6.71049635,14.2649969 7.4395,14.877 C8.16850364,15.4890031 9.05499478,16.0109978 10.099,16.443 C11.1430052,16.8750022 12.1914947,17.3159978 13.2445,17.766 C14.2975053,18.2160023 15.1884964,18.7919965 15.9175,19.494 C16.6465036,20.1960035 17.011,21.0059954 17.011,21.924 C17.011,23.724009 16.5655045,25.0649956 15.6745,25.947 C14.7834955,26.8290044 13.2580108,27.27 11.098,27.27 C9.33399118,27.27 7.94800504,26.9145036 6.94,26.2035 C5.93199496,25.4924964 5.23900189,24.3900075 4.861,22.896 L5.617,22.572 C5.9770018,24.0300073 6.59349563,25.0424972 7.4665,25.6095 C8.33950436,26.1765028 9.54999226,26.46 11.098,26.46 C12.8260086,26.46 14.1084958,26.1270033 14.9455,25.461 C15.7825042,24.7949967 16.201,23.6160085 16.201,21.924 C16.201,21.131996 15.8365036,20.4300031 15.1075,19.818 C14.3784964,19.2059969 13.4875053,18.6840022 12.4345,18.252 C11.3814947,17.8199978 10.3330052,17.3790022 9.289,16.929 C8.24499478,16.4789977 7.35850364,15.9030035 6.6295,15.201 C5.90049635,14.4989965 5.536,13.6890046 5.536,12.771 Z M21.736,8.91 L21.736,8.1 L39.799,8.1 L32.914,27.027 L29.404,17.415 L25.921,27.027 L19.036,8.1 L19.9,8.1 L25.921,24.651 L29.404,15.039 L32.914,24.651 L38.638,8.91 L21.736,8.91 Z M54.217,26.19 L54.217,27 L42.931,27 L42.931,8.1 L43.741,8.1 L43.741,26.19 L54.217,26.19 Z");
                }
            }
        </style>
    </defs>
    <g id="speakwritelisten-full" stroke="none" stroke-width="1" fill="none" fill-rule="evenodd">
        <path id="speakwritelisten" d="M4.106,11.771 C4.106,10.0249913 4.54699559,8.76500387 5.429,7.991 C6.31100441,7.21699613 7.7419901,6.83 9.722,6.83 C11.1080069,6.83 12.2239958,7.1899964 13.07,7.91 C13.9160042,8.6300036 14.5279981,9.72799262 14.906,11.204 L12.395,13.094 L11.072,13.094 L13.988,10.907 C13.6099981,9.70099397 13.0655036,8.85500243 12.3545,8.369 C11.6434964,7.88299757 10.7660052,7.64 9.722,7.64 C9.0019964,7.64 8.39450247,7.68499955 7.8995,7.775 C7.40449753,7.86500045 6.90950248,8.0404987 6.4145,8.3015 C5.91949753,8.56250131 5.54600126,8.98099712 5.294,9.557 C5.04199874,10.1330029 4.916,10.8709955 4.916,11.771 C4.916,12.563004 5.28049636,13.2649969 6.0095,13.877 C6.73850364,14.4890031 7.62499478,15.0109978 8.669,15.443 C9.71300522,15.8750022 10.7614947,16.3159978 11.8145,16.766 C12.8675053,17.2160023 13.7584964,17.7919965 14.4875,18.494 C15.2165036,19.1960035 15.581,20.0059954 15.581,20.924 C15.581,22.724009 15.1355045,24.0649956 14.2445,24.947 C13.3534955,25.8290044 11.8280108,26.27 9.668,26.27 C7.90399118,26.27 6.51800504,25.9145036 5.51,25.2035 C4.50199496,24.4924964 3.80900189,23.3900075 3.431,21.896 L4.187,21.572 C4.5470018,23.0300073 5.16349564,24.0424972 6.0365,24.6095 C6.90950437,25.1765028 8.11999226,25.46 9.668,25.46 C11.3960086,25.46 12.6784958,25.1270033 13.5155,24.461 C14.3525042,23.7949967 14.771,22.6160085 14.771,20.924 C14.771,20.131996 14.4065036,19.4300031 13.6775,18.818 C12.9484964,18.2059969 12.0575053,17.6840022 11.0045,17.252 C9.95149474,16.8199978 8.90300522,16.3790022 7.859,15.929 C6.81499478,15.4789977 5.92850365,14.9030035 5.1995,14.201 C4.47049635,13.4989965 4.106,12.6890046 4.106,11.771 Z M26.408,20.168 L26.003,19.466 L27.515,18.602 C28.7570062,17.9179966 29.378,16.8290075 29.378,15.335 C29.378,12.544986 27.2540212,11.15 23.006,11.15 L20.522,11.15 L20.522,31.4 L19.712,31.4 L19.712,10.34 L23.006,10.34 C25.3820119,10.34 27.172994,10.7764956 28.379,11.6495 C29.585006,12.5225044 30.188,13.7509921 30.188,15.335 C30.188,17.135009 29.4320076,18.4579958 27.92,19.304 L26.408,20.168 Z M44.471,24.407 C43.4809951,25.6490062 41.8610113,26.27 39.611,26.27 C37.3609888,26.27 35.7500049,25.6310064 34.778,24.353 C33.8059951,23.0749936 33.32,21.0140142 33.32,18.17 C33.32,15.3259858 33.8059951,13.2650064 34.778,11.987 C35.7500049,10.7089936 37.3609888,10.07 39.611,10.07 C42.221013,10.07 43.9939953,10.9249915 44.93,12.635 L38.315,18.17 L37.046,18.17 L43.877,12.473 C43.084996,11.4109947 41.6630103,10.88 39.611,10.88 C38.7109955,10.88 37.9550031,10.9744991 37.343,11.1635 C36.7309969,11.3525009 36.1685026,11.7034974 35.6555,12.2165 C35.1424974,12.7295026 34.7600013,13.4764951 34.508,14.4575 C34.2559987,15.4385049 34.13,16.6759925 34.13,18.17 C34.13,19.6640075 34.2559987,20.9014951 34.508,21.8825 C34.7600013,22.8635049 35.1424974,23.6104974 35.6555,24.1235 C36.1685026,24.6365026 36.7309969,24.9874991 37.343,25.1765 C37.9550031,25.3655009 38.7109955,25.46 39.611,25.46 C41.6630103,25.46 43.084996,24.9290053 43.877,23.867 L44.471,24.407 Z M50.222,25.19 L59.024,25.19 L53.489,12.149 L47.603,26 L46.739,26 L53.489,10.07 L60.239,26 L50.222,26 L50.222,25.19 Z M63.317,26 L63.317,10.34 L64.127,10.34 L64.127,26 L63.317,26 Z M73.307,26 L64.991,17.738 L72.443,10.34 L73.604,10.34 L66.152,17.738 L74.468,26 L73.307,26 Z M76.79,24.434 L78.572,24.434 L78.572,26 L76.79,26 L76.79,24.434 Z M91.829,7.91 L91.829,7.1 L109.892,7.1 L103.007,26.027 L99.497,16.415 L96.014,26.027 L89.129,7.1 L89.993,7.1 L96.014,23.651 L99.497,14.039 L103.007,23.651 L108.731,7.91 L91.829,7.91 Z M119.504,18.143 L123.176,26 L122.285,26 L118.505,17.9 C118.541,17.8819999 118.698499,17.8055007 118.9775,17.6705 C119.256501,17.5354993 119.449999,17.4365003 119.558,17.3735 C119.666001,17.3104997 119.845999,17.1980008 120.098,17.036 C120.350001,16.8739992 120.538999,16.7165008 120.665,16.5635 C120.791001,16.4104992 120.930499,16.230501 121.0835,16.0235 C121.236501,15.816499 121.349,15.5825013 121.421,15.3215 C121.493,15.0604987 121.529,14.7770015 121.529,14.471 C121.529,13.3369943 120.989005,12.5000027 119.909,11.96 C118.828995,11.4199973 117.488008,11.15 115.886,11.15 L113.726,11.15 L113.726,26 L112.916,26 L112.916,10.34 L115.886,10.34 C118.010011,10.34 119.616495,10.7089963 120.7055,11.447 C121.794505,12.1850037 122.339,13.1929936 122.339,14.471 C122.339,15.2990041 122.060003,16.0324968 121.502,16.6715 C120.943997,17.3105032 120.278004,17.8009983 119.504,18.143 Z M126.848,10.34 L127.658,10.34 L127.658,26 L126.848,26 L126.848,10.34 Z M142.913,10.34 L142.913,11.15 L137.243,11.15 L137.243,26 L136.433,26 L136.433,11.15 L130.763,11.15 L130.763,10.34 L142.913,10.34 Z M156.494,24.407 C155.503995,25.6490062 153.884011,26.27 151.634,26.27 C149.383989,26.27 147.773005,25.6310064 146.801,24.353 C145.828995,23.0749936 145.343,21.0140142 145.343,18.17 C145.343,15.3259858 145.828995,13.2650064 146.801,11.987 C147.773005,10.7089936 149.383989,10.07 151.634,10.07 C154.244013,10.07 156.016995,10.9249915 156.953,12.635 L150.338,18.17 L149.069,18.17 L155.9,12.473 C155.107996,11.4109947 153.68601,10.88 151.634,10.88 C150.733995,10.88 149.978003,10.9744991 149.366,11.1635 C148.753997,11.3525009 148.191503,11.7034974 147.6785,12.2165 C147.165497,12.7295026 146.783001,13.4764951 146.531,14.4575 C146.278999,15.4385049 146.153,16.6759925 146.153,18.17 C146.153,19.6640075 146.278999,20.9014951 146.531,21.8825 C146.783001,22.8635049 147.165497,23.6104974 147.6785,24.1235 C148.191503,24.6365026 148.753997,24.9874991 149.366,25.1765 C149.978003,25.3655009 150.733995,25.46 151.634,25.46 C153.68601,25.46 155.107996,24.9290053 155.9,23.867 L156.494,24.407 Z M160.382,24.434 L162.164,24.434 L162.164,26 L160.382,26 L160.382,24.434 Z M186.221,25.19 L186.221,26 L174.935,26 L174.935,7.1 L175.745,7.1 L175.745,25.19 L186.221,25.19 Z M189.191,10.34 L190.001,10.34 L190.001,26 L189.191,26 L189.191,10.34 Z M199.262,10.016 C201.494011,10.016 203.077995,10.510995 204.014,11.501 L203.474,12.095 C202.609996,11.2489958 201.242009,10.826 199.37,10.826 C196.561986,10.826 195.158,11.9419888 195.158,14.174 C195.158,15.0380043 195.499997,15.7264974 196.184,16.2395 C196.868003,16.7525026 197.700495,17.1439987 198.6815,17.414 C199.662505,17.6840014 200.643495,17.9674985 201.6245,18.2645 C202.605505,18.5615015 203.437997,19.0384967 204.122,19.6955 C204.806003,20.3525033 205.148,21.2119947 205.148,22.274 C205.148,23.516 204.635005,24.5059963 203.609,25.244 C202.582995,25.9820037 201.09801,26.351 199.154,26.351 C198.199995,26.351 197.259505,26.2250013 196.3325,25.973 C195.405495,25.7209987 194.717002,25.3520024 194.267,24.866 L194.807,24.272 C195.725005,25.1180042 197.13799,25.541 199.046,25.541 C200.792009,25.541 202.110496,25.2170032 203.0015,24.569 C203.892504,23.9209968 204.338,23.1650043 204.338,22.301 C204.338,21.4009955 203.996003,20.6720028 203.312,20.114 C202.627997,19.5559972 201.795505,19.1375014 200.8145,18.8585 C199.833495,18.5794986 198.852505,18.2915015 197.8715,17.9945 C196.890495,17.6974985 196.058003,17.2340031 195.374,16.604 C194.689997,15.9739969 194.348,15.1460051 194.348,14.12 C194.348,12.7339931 194.811495,11.7035034 195.7385,11.0285 C196.665505,10.3534966 197.839993,10.016 199.262,10.016 Z M219.215,10.34 L219.215,11.15 L213.545,11.15 L213.545,26 L212.735,26 L212.735,11.15 L207.065,11.15 L207.065,10.34 L219.215,10.34 Z M232.796,24.407 C231.805995,25.6490062 230.186011,26.27 227.936,26.27 C225.685989,26.27 224.075005,25.6310064 223.103,24.353 C222.130995,23.0749936 221.645,21.0140142 221.645,18.17 C221.645,15.3259858 222.130995,13.2650064 223.103,11.987 C224.075005,10.7089936 225.685989,10.07 227.936,10.07 C230.546013,10.07 232.318995,10.9249915 233.255,12.635 L226.64,18.17 L225.371,18.17 L232.202,12.473 C231.409996,11.4109947 229.98801,10.88 227.936,10.88 C227.035995,10.88 226.280003,10.9744991 225.668,11.1635 C225.055997,11.3525009 224.493503,11.7034974 223.9805,12.2165 C223.467497,12.7295026 223.085001,13.4764951 222.833,14.4575 C222.580999,15.4385049 222.455,16.6759925 222.455,18.17 C222.455,19.6640075 222.580999,20.9014951 222.833,21.8825 C223.085001,22.8635049 223.467497,23.6104974 223.9805,24.1235 C224.493503,24.6365026 225.055997,24.9874991 225.668,25.1765 C226.280003,25.3655009 227.035995,25.46 227.936,25.46 C229.98801,25.46 231.409996,24.9290053 232.202,23.867 L232.796,24.407 Z M237.116,26 L237.116,10.34 L237.926,10.34 L246.728,24.515 L246.728,10.34 L247.538,10.34 L247.538,26 L246.728,26 L237.926,11.798 L237.926,26 L237.116,26 Z M252.236,24.434 L254.018,24.434 L254.018,26 L252.236,26 L252.236,24.434 Z" fill="#000000" fill-rule="nonzero"></path>
    </g>
</svg>
