<?xml version="1.0" encoding="UTF-8"?>
<svg viewBox="0 0 64 35" height="35" width="64" version="1.1" xmlns="http://www.w3.org/2000/svg" xmlns:xlink="http://www.w3.org/1999/xlink">
    <!-- Generator: Sketch 55.1 (78136) - https://sketchapp.com -->
    <title>SpeakWriteListen responsive logo</title>
    <desc>Created with Sketch.</desc>
    <defs>
      <style type="text/css">
        </style>
    </defs>
    <g id="speakwritelisten-full" stroke="none" stroke-width="1" fill="none" fill-rule="evenodd">
        <path id="speakwritelisten" d="M5.536,12.771 C5.536,11.0249913 5.97699559,9.76500387 6.859,8.991 C7.74100441,8.21699613 9.1719901,7.83 11.152,7.83 C12.5380069,7.83 13.6539958,8.1899964 14.5,8.91 C15.3460042,9.6300036 15.9579981,10.7279926 16.336,12.204 L13.825,14.094 L12.502,14.094 L15.418,11.907 C15.0399981,10.700994 14.4955036,9.85500243 13.7845,9.369 C13.0734964,8.88299757 12.1960052,8.64 11.152,8.64 C10.4319964,8.64 9.82450247,8.68499955 9.3295,8.775 C8.83449752,8.86500045 8.33950247,9.0404987 7.8445,9.3015 C7.34949752,9.56250131 6.97600126,9.98099712 6.724,10.557 C6.47199874,11.1330029 6.346,11.8709955 6.346,12.771 C6.346,13.563004 6.71049635,14.2649969 7.4395,14.877 C8.16850364,15.4890031 9.05499478,16.0109978 10.099,16.443 C11.1430052,16.8750022 12.1914947,17.3159978 13.2445,17.766 C14.2975053,18.2160023 15.1884964,18.7919965 15.9175,19.494 C16.6465036,20.1960035 17.011,21.0059954 17.011,21.924 C17.011,23.724009 16.5655045,25.0649956 15.6745,25.947 C14.7834955,26.8290044 13.2580108,27.27 11.098,27.27 C9.33399118,27.27 7.94800504,26.9145036 6.94,26.2035 C5.93199496,25.4924964 5.23900189,24.3900075 4.861,22.896 L5.617,22.572 C5.9770018,24.0300073 6.59349563,25.0424972 7.4665,25.6095 C8.33950436,26.1765028 9.54999226,26.46 11.098,26.46 C12.8260086,26.46 14.1084958,26.1270033 14.9455,25.461 C15.7825042,24.7949967 16.201,23.6160085 16.201,21.924 C16.201,21.131996 15.8365036,20.4300031 15.1075,19.818 C14.3784964,19.2059969 13.4875053,18.6840022 12.4345,18.252 C11.3814947,17.8199978 10.3330052,17.3790022 9.289,16.929 C8.24499478,16.4789977 7.35850364,15.9030035 6.6295,15.201 C5.90049635,14.4989965 5.536,13.6890046 5.536,12.771 Z M21.736,8.91 L21.736,8.1 L39.799,8.1 L32.914,27.027 L29.404,17.415 L25.921,27.027 L19.036,8.1 L19.9,8.1 L25.921,24.651 L29.404,15.039 L32.914,24.651 L38.638,8.91 L21.736,8.91 Z M54.217,26.19 L54.217,27 L42.931,27 L42.931,8.1 L43.741,8.1 L43.741,26.19 L54.217,26.19 Z" fill="#000000" fill-rule="nonzero"></path>
    </g>
</svg>

